<svg xmlns="http://www.w3.org/2000/svg" width="56.812" height="57.087" viewBox="0 0 56.812 57.087">
  <g id="buffet_1_" data-name="buffet (1)" transform="translate(-1.235)">
    <path id="Path_207" data-name="Path 207" d="M216.638,316.952c-1.383,0-1.833,1.093-3.148,2.243l-1.6-1.6a2.184,2.184,0,0,0-3.108,3.069l4.712,4.361c3.975-3.959,5.332-4.238,5.332-5.885C218.822,318.553,217.845,316.952,216.638,316.952Z" transform="translate(-183.849 -281.609)" fill="rgba(213,19,101,0.8)"/>
    <path id="Path_208" data-name="Path 208" d="M381.873,11.75A6.7,6.7,0,0,0,377.76,0l-.127,3.343a3.349,3.349,0,0,1,2.053,5.876c-5.184,4.479-3.558,10.3-3.858,12.521h3.345C379.469,19.187,378.077,15.029,381.873,11.75Z" transform="translate(-332.806)" fill="rgba(213,19,101,0.8)"/>
    <path id="Path_209" data-name="Path 209" d="M95.814,44.287a5.012,5.012,0,0,0,.176-7.634c-1.886-1.687-1.368-3.8-1.453-4.364H91.191a8.248,8.248,0,0,0,2.568,6.857,1.664,1.664,0,0,1-.056,2.545,7.489,7.489,0,0,0-2.726,5.857v2.879h3.345C94.5,48.658,93.682,46.02,95.814,44.287Z" transform="translate(-79.736 -28.689)" fill="rgba(213,19,101,0.8)"/>
    <path id="Path_210" data-name="Path 210" d="M62.818,176.449a5.53,5.53,0,0,1,7.058-8.457,5.53,5.53,0,0,1,7.058,8.457l-.047.045-4.211,3.9H93.232a23.465,23.465,0,0,0-18.808-21.3,5.017,5.017,0,1,0-9.1,0,23.465,23.465,0,0,0-18.808,21.3H67.076ZM68.2,156.975a1.673,1.673,0,1,1,1.673,1.673A1.675,1.675,0,0,1,68.2,156.975Z" transform="translate(-40.234 -135.013)" fill="rgba(213,19,101,0.8)"/>
    <path id="Path_211" data-name="Path 211" d="M1.235,436.956a10.052,10.052,0,0,0,9.9,8.363H48.151a10.052,10.052,0,0,0,9.9-8.363Z" transform="translate(0 -388.232)" fill="rgba(213,19,101,0.8)"/>
  </g>
</svg>
