<svg id="Capa_1" enable-background="new 0 0 512 512" height="512" viewBox="0 0 512 512" width="512" xmlns="http://www.w3.org/2000/svg"><g><path d="m510.404 311.778c-1.421-1.814-3.599-2.875-5.904-2.875h-21.08v-51.1c0-46.14-18.219-89.264-51.302-121.428-2.969-2.886-7.718-2.82-10.605.149-2.887 2.97-2.821 7.718.149 10.605 30.152 29.315 46.758 68.62 46.758 110.673v51.1h-335.12c-4.142 0-7.5 3.358-7.5 7.5s3.358 7.5 7.5 7.5h102.932l-82.356 35.55h-86.916c-22.683 0-42.501-14.401-49.686-35.55h83.346c4.142 0 7.5-3.358 7.5-7.5s-3.358-7.5-7.5-7.5h-57.04v-51.1c0-85.114 69.246-154.36 154.36-154.36h116.12c26.532 0 53.365 7.048 76.421 20.213 3.598 2.054 8.178.803 10.232-2.794s.803-8.178-2.794-10.232c-25.292-14.441-54.731-22.187-83.859-22.187h-28.06v-29.999h18.25c13.58 0 24.628-11.048 24.628-24.627v-8.606c0-13.58-11.048-24.628-24.628-24.628h-96.5c-13.58 0-24.628 11.048-24.628 24.628v8.606c0 13.58 11.048 24.627 24.628 24.627h18.25v30.001h-28.06c-93.385 0-169.36 75.975-169.36 169.36v51.1h-21.08c-8.033 0-8.257 8.912-6.083 14.159 7.435 30.258 34.387 51.391 65.543 51.391h63.503l-41.342 43.496-6.562-5.76c-3.027-2.658-7.613-2.449-10.387.472l-70.111 73.841c-2.852 3.004-2.729 7.751.275 10.603 3.003 2.852 7.75 2.73 10.603-.275l65.146-68.61 71.166 62.472-6.793 8.565c-2.574 3.245-2.03 7.963 1.215 10.537 3.679 2.515 7.191 2.11 10.537-1.215l11.227-14.155c2.484-3.131 2.076-7.66-.928-10.297l-6.25-5.486 31.531-35.208s84.726-.304 85.26-.424l56.92-12.84c4.041-.911 6.577-4.926 5.666-8.966-.911-4.041-4.928-6.578-8.966-5.666l-56.116 12.659-86.145.248c-2.125.006-4.148.914-5.565 2.497l-33.739 37.672-46.689-40.772 46.694-49.128 124.806-53.874c12.424-5.369 23.705 14.149 9.183 20.747l-31.68 14.39c-3.215 1.46-4.976 4.965-4.229 8.416s3.799 5.913 7.33 5.913h140.9c7.256 0 13.16 5.899 13.16 13.15-.427 6.672-3.847 10.95-10.261 12.834l-34.97 7.89c-4.041.912-6.577 4.926-5.665 8.967s4.924 6.578 8.967 5.665l34.98-7.892c13.726-4.029 21.043-13.184 21.949-27.464 0-4.688-1.159-9.108-3.195-13h26.655c31.156 0 58.108-21.133 65.542-51.385l1.2-4.87c.552-2.241.044-4.608-1.378-6.423zm-312.282-277.963v-8.606c0-5.309 4.319-9.628 9.628-9.628h96.5c5.309 0 9.628 4.319 9.628 9.628v8.606c0 5.309-4.319 9.627-9.628 9.627h-96.5c-5.309.001-9.628-4.318-9.628-9.627zm72.878 24.628v30h-30v-30zm174.04 301.01-157.874-.15.136-.062c9.39-4.267 15.457-13.69 15.457-24.008 0-3.93-.902-7.797-2.596-11.33h194.562c-7.182 21.148-27 35.55-49.685 35.55z"/></g></svg>